<mxfile host="Electron" modified="2023-12-03T06:58:40.593Z" agent="Mozilla/5.0 (Windows NT 10.0; Win64; x64) AppleWebKit/537.36 (KHTML, like Gecko) draw.io/22.1.2 Chrome/114.0.5735.289 Electron/25.9.4 Safari/537.36" etag="whNi4qEgYoBr-UDnHUYx" version="22.1.2" type="device">
  <diagram name="Page-1" id="DR1VbXGBRfW4ymxS6Q6l">
    <mxGraphModel dx="3742" dy="2145" grid="1" gridSize="10" guides="1" tooltips="1" connect="1" arrows="1" fold="1" page="1" pageScale="1" pageWidth="850" pageHeight="1100" math="0" shadow="0">
      <root>
        <mxCell id="0" />
        <mxCell id="1" parent="0" />
        <mxCell id="kQpx8t5fZ30krPugMS4W-12" style="edgeStyle=orthogonalEdgeStyle;rounded=0;orthogonalLoop=1;jettySize=auto;html=1;entryX=0;entryY=0.5;entryDx=0;entryDy=0;strokeWidth=3;" edge="1" parent="1" source="kQpx8t5fZ30krPugMS4W-1" target="kQpx8t5fZ30krPugMS4W-8">
          <mxGeometry relative="1" as="geometry" />
        </mxCell>
        <mxCell id="kQpx8t5fZ30krPugMS4W-13" style="edgeStyle=orthogonalEdgeStyle;rounded=0;orthogonalLoop=1;jettySize=auto;html=1;entryX=0;entryY=0.5;entryDx=0;entryDy=0;strokeWidth=3;" edge="1" parent="1" source="kQpx8t5fZ30krPugMS4W-1" target="kQpx8t5fZ30krPugMS4W-9">
          <mxGeometry relative="1" as="geometry" />
        </mxCell>
        <mxCell id="kQpx8t5fZ30krPugMS4W-14" style="edgeStyle=orthogonalEdgeStyle;rounded=0;orthogonalLoop=1;jettySize=auto;html=1;strokeWidth=3;" edge="1" parent="1" source="kQpx8t5fZ30krPugMS4W-1" target="kQpx8t5fZ30krPugMS4W-10">
          <mxGeometry relative="1" as="geometry" />
        </mxCell>
        <mxCell id="kQpx8t5fZ30krPugMS4W-15" style="edgeStyle=orthogonalEdgeStyle;rounded=0;orthogonalLoop=1;jettySize=auto;html=1;strokeWidth=3;" edge="1" parent="1" source="kQpx8t5fZ30krPugMS4W-1" target="kQpx8t5fZ30krPugMS4W-11">
          <mxGeometry relative="1" as="geometry" />
        </mxCell>
        <mxCell id="kQpx8t5fZ30krPugMS4W-16" style="edgeStyle=orthogonalEdgeStyle;rounded=0;orthogonalLoop=1;jettySize=auto;html=1;strokeWidth=3;" edge="1" parent="1" source="kQpx8t5fZ30krPugMS4W-1" target="kQpx8t5fZ30krPugMS4W-4">
          <mxGeometry relative="1" as="geometry" />
        </mxCell>
        <mxCell id="kQpx8t5fZ30krPugMS4W-1" value="" style="strokeWidth=1;shadow=0;dashed=0;align=center;html=1;shape=mxgraph.mockup.containers.browserWindow;rSize=0;strokeColor=#666666;strokeColor2=#008cff;strokeColor3=#c4c4c4;mainText=,;recursiveResize=0;" vertex="1" parent="1">
          <mxGeometry x="185" y="70" width="420" height="270" as="geometry" />
        </mxCell>
        <mxCell id="kQpx8t5fZ30krPugMS4W-2" value="Page 1" style="strokeWidth=1;shadow=0;dashed=0;align=center;html=1;shape=mxgraph.mockup.containers.anchor;fontSize=17;fontColor=#666666;align=left;whiteSpace=wrap;" vertex="1" parent="kQpx8t5fZ30krPugMS4W-1">
          <mxGeometry x="60" y="12" width="110" height="26" as="geometry" />
        </mxCell>
        <mxCell id="kQpx8t5fZ30krPugMS4W-3" value="https://www.draw.io" style="strokeWidth=1;shadow=0;dashed=0;align=center;html=1;shape=mxgraph.mockup.containers.anchor;rSize=0;fontSize=17;fontColor=#666666;align=left;" vertex="1" parent="kQpx8t5fZ30krPugMS4W-1">
          <mxGeometry x="130" y="60" width="250" height="26" as="geometry" />
        </mxCell>
        <mxCell id="kQpx8t5fZ30krPugMS4W-17" style="edgeStyle=orthogonalEdgeStyle;rounded=0;orthogonalLoop=1;jettySize=auto;html=1;strokeWidth=4;" edge="1" parent="1" source="kQpx8t5fZ30krPugMS4W-4" target="kQpx8t5fZ30krPugMS4W-7">
          <mxGeometry relative="1" as="geometry" />
        </mxCell>
        <mxCell id="kQpx8t5fZ30krPugMS4W-4" value="" style="sketch=0;outlineConnect=0;fontColor=#232F3E;gradientColor=none;fillColor=#232F3D;strokeColor=none;dashed=0;verticalLabelPosition=bottom;verticalAlign=top;align=center;html=1;fontSize=12;fontStyle=0;aspect=fixed;pointerEvents=1;shape=mxgraph.aws4.traditional_server;" vertex="1" parent="1">
          <mxGeometry x="322.89" y="490" width="144.23" height="250" as="geometry" />
        </mxCell>
        <mxCell id="kQpx8t5fZ30krPugMS4W-7" value="" style="html=1;verticalLabelPosition=bottom;align=center;labelBackgroundColor=#ffffff;verticalAlign=top;strokeWidth=8;strokeColor=#000000;shadow=0;dashed=0;shape=mxgraph.ios7.icons.data;" vertex="1" parent="1">
          <mxGeometry x="322.89000000000004" y="860" width="144" height="220" as="geometry" />
        </mxCell>
        <mxCell id="kQpx8t5fZ30krPugMS4W-8" value="&lt;font style=&quot;font-size: 20px;&quot;&gt;login and account&lt;/font&gt;" style="rounded=0;whiteSpace=wrap;html=1;fillColor=#b0e3e6;strokeColor=#0e8088;" vertex="1" parent="1">
          <mxGeometry x="780" y="30" width="120" height="60" as="geometry" />
        </mxCell>
        <mxCell id="kQpx8t5fZ30krPugMS4W-9" value="&lt;font style=&quot;font-size: 20px;&quot;&gt;store&lt;/font&gt;" style="rounded=0;whiteSpace=wrap;html=1;fillColor=#b0e3e6;strokeColor=#0e8088;" vertex="1" parent="1">
          <mxGeometry x="780" y="130" width="120" height="60" as="geometry" />
        </mxCell>
        <mxCell id="kQpx8t5fZ30krPugMS4W-10" value="&lt;font style=&quot;font-size: 20px;&quot;&gt;payment&lt;/font&gt;" style="rounded=0;whiteSpace=wrap;html=1;fillColor=#b0e3e6;strokeColor=#0e8088;" vertex="1" parent="1">
          <mxGeometry x="780" y="230" width="120" height="60" as="geometry" />
        </mxCell>
        <mxCell id="kQpx8t5fZ30krPugMS4W-11" value="&lt;font style=&quot;font-size: 20px;&quot;&gt;blog&lt;/font&gt;" style="rounded=0;whiteSpace=wrap;html=1;fillColor=#b0e3e6;strokeColor=#0e8088;" vertex="1" parent="1">
          <mxGeometry x="780" y="320" width="120" height="60" as="geometry" />
        </mxCell>
      </root>
    </mxGraphModel>
  </diagram>
</mxfile>
